Coordinates
version=1
nRows=26
nColumns=24
inDegrees=yes

Units are S.I. units (second, meters, Newtons, ...)
Angles are in degrees.

endheader
time	pelvis_tilt	pelvis_list	pelvis_rotation	pelvis_tx	pelvis_ty	pelvis_tz	hip_flexion_r	hip_adduction_r	hip_rotation_r	knee_angle_r	ankle_angle_r	subtalar_angle_r	mtp_angle_r	hip_flexion_l	hip_adduction_l	hip_rotation_l	knee_angle_l	ankle_angle_l	subtalar_angle_l	mtp_angle_l	lumbar_extension	lumbar_bending	lumbar_rotation
      5.31000000	     -7.09770916	      1.61791231	     30.64271492	      1.74826200	      0.62209678	     -0.16574048	     35.93841163	    -11.67874846	    -11.62316522	    -11.97366482	    -12.80280140	    -26.85201169	      0.00000000	    -17.46906660	     -2.80343346	     18.52669920	    -17.90871053	     17.38812524	      5.74035028	      0.00000000	    -21.00558370	     -2.85764443	    -13.04743129
      5.32000000	     -7.06822107	      0.47218950	     29.79360478	      1.76447923	      0.62076916	     -0.16558826	     37.53016512	     -9.84763497	     -9.59195368	    -16.10918652	    -13.96990973	    -29.84254843	      0.00000000	    -16.74000417	     -3.91484015	     16.69369098	    -20.29825384	     14.57459071	      6.12811407	      0.00000000	    -20.56070269	     -1.82556717	    -12.50563590
      5.33000000	     -6.70965059	     -0.64089139	     28.74659283	      1.78071469	      0.62026726	     -0.16526482	     38.94689428	     -7.80939814	     -8.40428044	    -20.70466615	    -12.96235996	    -31.01030911	      0.00000000	    -16.18550110	     -5.07115916	     14.71025920	    -22.82845547	     10.80578838	      5.97002119	      0.00000000	    -20.57930692	     -0.69404140	    -11.79097324
      5.34000000	     -6.47938509	     -1.62083905	     27.65877256	      1.79689753	      0.62018230	     -0.16486310	     40.30384562	     -5.92022079	     -7.82112594	    -25.19482861	    -10.00768084	    -30.59990349	      0.00000000	    -15.25475236	     -6.03742237	     12.56470684	    -25.72695969	      6.46015462	      5.90239461	      0.00000000	    -20.58218140	      0.18073920	    -11.19695118
      5.35000000	     -6.01940245	     -2.42931014	     26.72169349	      1.81306386	      0.62093361	     -0.16460017	     40.84182160	     -4.16981590	     -7.88218471	    -28.85547128	     -6.40568308	    -29.44066621	      0.00000000	    -14.38634575	     -6.96121478	     10.72055701	    -28.73776616	      1.15154258	      4.83972321	      0.00000000	    -20.89593358	      0.98378847	    -10.77847279
      5.36000000	     -5.65138681	     -3.08018073	     26.01437624	      1.82906677	      0.62221011	     -0.16443222	     40.79142763	     -2.70111993	     -8.27768460	    -31.46157724	     -3.00896572	    -28.39132156	      0.00000000	    -13.14518957	     -7.74944435	      9.18773610	    -31.98983240	     -4.61359734	      3.28392023	      0.00000000	    -21.10282485	      1.54399587	    -10.53818865
      5.37000000	     -5.31318165	     -3.57050922	     25.56542600	      1.84482233	      0.62403739	     -0.16436826	     40.10336109	     -1.49702071	     -8.89973287	    -32.99512539	     -0.12837033	    -27.73779902	      0.00000000	    -11.60463020	     -8.40021790	      8.10195255	    -35.43237457	    -10.48659311	      1.06276075	      0.00000000	    -21.21468082	      1.88747812	    -10.36660864
      5.38000000	     -5.01503264	     -3.86692939	     25.28431256	      1.86024037	      0.62633488	     -0.16433027	     38.93404167	     -0.54013384	     -9.60668304	    -33.71559250	      2.41988723	    -27.02284695	      0.00000000	     -9.78292619	     -8.83982722	      7.32880290	    -39.05525228	    -16.06336604	     -1.80779778	      0.00000000	    -21.23169827	      1.96415762	    -10.26247626
      5.39000000	     -4.76635691	     -4.02782910	     25.03458400	      1.87534372	      0.62898889	     -0.16426174	     37.46283233	      0.28329259	    -10.28144609	    -33.86387182	      4.93055494	    -25.92469816	      0.00000000	     -7.74161505	     -9.07603290	      6.71475092	    -42.77036845	    -20.89135344	     -5.27126307	      0.00000000	    -21.12193351	      1.81536655	    -10.09387140
      5.40000000	     -4.44688929	     -4.07692263	     24.77284972	      1.89014637	      0.63207970	     -0.16419249	     35.65679533	      1.08673952	    -10.80809066	    -33.53655143	      6.81393707	    -25.25765236	      0.00000000	     -5.69315709	     -9.11792052	      6.30181501	    -46.43387972	    -24.76879673	     -9.34758004	      0.00000000	    -21.04162293	      1.53129221	     -9.69337453
      5.41000000	     -4.21927075	     -4.09470079	     24.26914392	      1.90471154	      0.63538839	     -0.16402567	     33.83998703	      1.94574971	    -11.08212275	    -32.98406304	      8.82676181	    -24.03754786	      0.00000000	     -3.55198806	     -8.96251442	      5.79511932	    -49.96643315	    -27.17081057	    -13.71548331	      0.00000000	    -20.80566621	      1.09277939	     -8.93029634
      5.42000000	     -3.99066482	     -4.16498959	     23.57824859	      1.91909129	      0.63901758	     -0.16377643	     31.90328402	      2.98331117	    -11.00849546	    -32.08883585	     10.27453680	    -23.07853007	      0.00000000	     -1.40380472	     -8.78805305	      5.19137037	    -53.24959477	    -28.14557568	    -17.96883636	      0.00000000	    -20.50480519	      0.66603082	     -8.05118946
      5.43000000	     -3.84199227	     -4.28113468	     22.62323187	      1.93335413	      0.64287817	     -0.16341132	     29.93736987	      4.16992342	    -10.51715164	    -30.91529691	     11.53048123	    -22.15335603	      0.00000000	      0.77137649	     -8.56901169	      4.46159225	    -56.19430567	    -27.61049921	    -21.61509133	      0.00000000	    -20.06915873	      0.20211211	     -6.95066699
      5.44000000	     -3.74019877	     -4.30614147	     21.42368910	      1.94751082	      0.64702611	     -0.16296505	     27.82721843	      5.35457778	     -9.56438882	    -29.44439069	     12.23873778	    -21.55398601	      0.00000000	      2.86991073	     -8.20294707	      3.65009763	    -58.72726013	    -25.57148570	    -24.06074300	      0.00000000	    -19.61199049	     -0.41634300	     -5.57118906
      5.45000000	     -3.71649772	     -4.21461735	     20.16680468	      1.96154187	      0.65139898	     -0.16261100	     25.56818692	      6.35577219	     -8.39645164	    -27.67613383	     12.87571024	    -20.78351378	      0.00000000	      4.94021108	     -7.64379737	      2.94243121	    -60.76044078	    -23.20024747	    -26.08062361	      0.00000000	    -19.08638248	     -1.15106904	     -4.34315519
      5.46000000	     -3.75858499	     -3.93671381	     18.87825440	      1.97544394	      0.65588019	     -0.16234893	     23.15753161	      7.05255222	     -7.14355157	    -25.67067038	     13.56666604	    -19.72977586	      0.00000000	      6.98003130	     -6.86817420	      2.31280321	    -62.36149834	    -20.14405469	    -26.69821234	      0.00000000	    -18.53268891	     -2.06452064	     -3.22640192
      5.47000000	     -3.85023338	     -3.51198801	     17.61709911	      1.98918776	      0.66033722	     -0.16220940	     20.59012883	      7.47228077	     -5.78549765	    -23.36873765	     13.92177149	    -18.88421590	      0.00000000	      8.99978000	     -5.91186340	      1.80843036	    -63.52799710	    -17.14742701	    -26.59522370	      0.00000000	    -17.95311682	     -3.08715856	     -2.23221337
      5.48000000	     -3.99655767	     -2.94802319	     16.41835692	      2.00275490	      0.66462491	     -0.16224960	     17.94304222	      7.56053507	     -4.54497617	    -20.87244331	     14.20800318	    -17.88227216	      0.00000000	     11.01241530	     -4.78671259	      1.42507392	    -64.28332985	    -14.31584358	    -25.90344847	      0.00000000	    -17.33775170	     -4.19097230	     -1.39889878
      5.49000000	     -4.17885821	     -2.27956338	     15.27535542	      2.01613404	      0.66862468	     -0.16248260	     15.27469907	      7.34814990	     -3.54800161	    -18.26706125	     14.51825736	    -16.56566328	      0.00000000	     13.00252977	     -3.54350426	      1.13048141	    -64.64394800	    -11.72598379	    -24.87159679	      0.00000000	    -16.70384691	     -5.32242172	     -0.69654661
      5.50000000	     -4.37172092	     -1.54617603	     14.18372704	      2.02931392	      0.67225282	     -0.16291959	     12.63825691	      6.88696163	     -2.91642119	    -15.64868330	     14.89150446	    -14.84205481	      0.00000000	     14.94627987	     -2.23797946	      0.90293830	    -64.61709408	     -9.34130783	    -23.72831551	      0.00000000	    -16.08168930	     -6.42773517	     -0.09378752
      5.51000000	     -4.55010140	     -0.80492463	     13.12725723	      2.04227930	      0.67542236	     -0.16353658	     10.08972610	      6.26525059	     -2.74125126	    -13.12408005	     15.35061906	    -12.64412719	      0.00000000	     16.83140107	     -0.94922393	      0.73028821	    -64.22940253	     -7.07112772	    -22.61173549	      0.00000000	    -15.49974831	     -7.44330750	      0.45871880
      5.52000000	     -4.68557214	     -0.11070620	     12.09189008	      2.05502107	      0.67808362	     -0.16429001	      7.66132670	      5.58577217	     -3.01194196	    -10.78189102	     15.88736773	    -10.00736164	      0.00000000	     18.63586851	      0.23951054	      0.59930382	    -63.49022638	     -4.89743208	    -21.67531177	      0.00000000	    -14.99090260	     -8.31650453	      1.01983294
      5.53000000	     -4.79249188	      0.48168128	     11.05523108	      2.06753507	      0.68018019	     -0.16512260	      5.41821304	      4.93513138	     -3.71557916	     -8.70014833	     16.42683550	     -6.96523014	      0.00000000	     20.38520950	      1.25201494	      0.49952346	    -62.41950259	     -2.92020247	    -21.02851576	      0.00000000	    -14.53794284	     -9.01365329	      1.64417124
      5.54000000	     -4.78405748	      0.94503508	      9.98698199	      2.07985875	      0.68173385	     -0.16595207	      3.23591104	      4.41292915	     -4.42197711	     -6.83388103	     16.95241337	     -4.06800946	      0.00000000	     21.97496621	      2.01752773	      0.41511486	    -61.03195483	     -1.02898329	    -20.77018784	      0.00000000	    -14.24032440	     -9.51187694	      2.38951708
      5.55000000	     -4.76269168	      1.23966795	      8.86719990	      2.09198074	      0.68267106	     -0.16673600	      1.24651654	      4.03786834	     -5.15576191	     -5.22127996	     17.34959643	     -1.21694890	      0.00000000	     23.52043264	      2.48717924	      0.32052371	    -59.34240141	      0.48803470	    -20.90255319	      0.00000000	    -13.97776362	     -9.81367060	      3.29817639
      5.56000000	     -4.68883541	      1.36366179	      7.67457106	      2.10394938	      0.68301773	     -0.16742447	     -0.65991323	      3.83745252	     -5.54521723	     -3.77333490	     17.59308772	      1.15907542	      0.00000000	     24.95922449	      2.63161625	      0.20132358	    -57.36231429	      1.64717701	    -21.42824662	      0.00000000	    -13.79601049	     -9.92556496	      4.38270863
